<mxfile host="app.diagrams.net" modified="2023-10-05T14:37:20.538Z" agent="Mozilla/5.0 (Windows NT 10.0; Win64; x64) AppleWebKit/537.36 (KHTML, like Gecko) Chrome/117.0.0.0 Safari/537.36" etag="1-xblccumgx5Ij7Ivenp" version="21.8.0" type="device">
  <diagram id="C5RBs43oDa-KdzZeNtuy" name="Page-1">
    <mxGraphModel dx="967" dy="533" grid="1" gridSize="10" guides="1" tooltips="1" connect="1" arrows="1" fold="1" page="1" pageScale="1" pageWidth="827" pageHeight="1169" math="0" shadow="0">
      <root>
        <mxCell id="WIyWlLk6GJQsqaUBKTNV-0" />
        <mxCell id="WIyWlLk6GJQsqaUBKTNV-1" parent="WIyWlLk6GJQsqaUBKTNV-0" />
        <mxCell id="WIyWlLk6GJQsqaUBKTNV-2" value="" style="rounded=0;html=1;jettySize=auto;orthogonalLoop=1;fontSize=11;endArrow=block;endFill=0;endSize=8;strokeWidth=1;shadow=0;labelBackgroundColor=none;edgeStyle=orthogonalEdgeStyle;" parent="WIyWlLk6GJQsqaUBKTNV-1" source="WIyWlLk6GJQsqaUBKTNV-3" target="WIyWlLk6GJQsqaUBKTNV-6" edge="1">
          <mxGeometry relative="1" as="geometry" />
        </mxCell>
        <mxCell id="WIyWlLk6GJQsqaUBKTNV-3" value="Trigger: Uhrzeit" style="rounded=1;whiteSpace=wrap;html=1;fontSize=12;glass=0;strokeWidth=1;shadow=0;" parent="WIyWlLk6GJQsqaUBKTNV-1" vertex="1">
          <mxGeometry x="160" y="120" width="120" height="40" as="geometry" />
        </mxCell>
        <mxCell id="WIyWlLk6GJQsqaUBKTNV-4" value="No" style="rounded=0;html=1;jettySize=auto;orthogonalLoop=1;fontSize=11;endArrow=block;endFill=0;endSize=8;strokeWidth=1;shadow=0;labelBackgroundColor=none;edgeStyle=orthogonalEdgeStyle;" parent="WIyWlLk6GJQsqaUBKTNV-1" source="WIyWlLk6GJQsqaUBKTNV-6" edge="1">
          <mxGeometry y="20" relative="1" as="geometry">
            <mxPoint as="offset" />
            <mxPoint x="220" y="350" as="targetPoint" />
          </mxGeometry>
        </mxCell>
        <mxCell id="WIyWlLk6GJQsqaUBKTNV-5" value="Yes" style="edgeStyle=orthogonalEdgeStyle;rounded=0;html=1;jettySize=auto;orthogonalLoop=1;fontSize=11;endArrow=block;endFill=0;endSize=8;strokeWidth=1;shadow=0;labelBackgroundColor=none;" parent="WIyWlLk6GJQsqaUBKTNV-1" source="WIyWlLk6GJQsqaUBKTNV-6" target="WIyWlLk6GJQsqaUBKTNV-7" edge="1">
          <mxGeometry y="10" relative="1" as="geometry">
            <mxPoint as="offset" />
          </mxGeometry>
        </mxCell>
        <mxCell id="WIyWlLk6GJQsqaUBKTNV-6" value="NFC Tag scanned?" style="rhombus;whiteSpace=wrap;html=1;shadow=0;fontFamily=Helvetica;fontSize=12;align=center;strokeWidth=1;spacing=6;spacingTop=-4;" parent="WIyWlLk6GJQsqaUBKTNV-1" vertex="1">
          <mxGeometry x="170" y="210" width="100" height="80" as="geometry" />
        </mxCell>
        <mxCell id="F6ky775ezU9HYG-6rDv_-16" style="edgeStyle=orthogonalEdgeStyle;rounded=0;orthogonalLoop=1;jettySize=auto;html=1;entryX=1;entryY=0.5;entryDx=0;entryDy=0;" edge="1" parent="WIyWlLk6GJQsqaUBKTNV-1" source="WIyWlLk6GJQsqaUBKTNV-7" target="F6ky775ezU9HYG-6rDv_-18">
          <mxGeometry relative="1" as="geometry">
            <Array as="points">
              <mxPoint x="580" y="250" />
              <mxPoint x="580" y="50" />
            </Array>
          </mxGeometry>
        </mxCell>
        <mxCell id="WIyWlLk6GJQsqaUBKTNV-7" value="Fertig für heute" style="rounded=1;whiteSpace=wrap;html=1;fontSize=12;glass=0;strokeWidth=1;shadow=0;" parent="WIyWlLk6GJQsqaUBKTNV-1" vertex="1">
          <mxGeometry x="410" y="230" width="120" height="40" as="geometry" />
        </mxCell>
        <mxCell id="F6ky775ezU9HYG-6rDv_-2" style="edgeStyle=orthogonalEdgeStyle;rounded=0;orthogonalLoop=1;jettySize=auto;html=1;entryX=0;entryY=0.5;entryDx=0;entryDy=0;labelBackgroundColor=none;endArrow=block;endFill=0;endSize=8;strokeWidth=1;shadow=0;" edge="1" parent="WIyWlLk6GJQsqaUBKTNV-1" source="F6ky775ezU9HYG-6rDv_-1" target="WIyWlLk6GJQsqaUBKTNV-6">
          <mxGeometry relative="1" as="geometry">
            <mxPoint x="60" y="210" as="targetPoint" />
            <Array as="points">
              <mxPoint x="61" y="380" />
              <mxPoint x="61" y="250" />
            </Array>
          </mxGeometry>
        </mxCell>
        <mxCell id="F6ky775ezU9HYG-6rDv_-6" value="&lt;font style=&quot;font-size: 8px;&quot;&gt;warten&lt;br&gt;&lt;i style=&quot;font-size: 7px;&quot;&gt;ask_later_wait_time&lt;/i&gt;&lt;br&gt;&lt;/font&gt;" style="edgeLabel;html=1;align=center;verticalAlign=middle;resizable=0;points=[];" vertex="1" connectable="0" parent="F6ky775ezU9HYG-6rDv_-2">
          <mxGeometry x="0.0149" y="-1" relative="1" as="geometry">
            <mxPoint as="offset" />
          </mxGeometry>
        </mxCell>
        <mxCell id="F6ky775ezU9HYG-6rDv_-10" style="edgeStyle=orthogonalEdgeStyle;rounded=0;orthogonalLoop=1;jettySize=auto;html=1;entryX=0;entryY=0.5;entryDx=0;entryDy=0;labelBackgroundColor=none;endArrow=block;endFill=0;endSize=8;strokeWidth=1;shadow=0;" edge="1" parent="WIyWlLk6GJQsqaUBKTNV-1" source="F6ky775ezU9HYG-6rDv_-1" target="F6ky775ezU9HYG-6rDv_-12">
          <mxGeometry relative="1" as="geometry" />
        </mxCell>
        <mxCell id="F6ky775ezU9HYG-6rDv_-14" value="Auswahl: Genommen" style="edgeLabel;html=1;align=center;verticalAlign=middle;resizable=0;points=[];fontSize=9;" vertex="1" connectable="0" parent="F6ky775ezU9HYG-6rDv_-10">
          <mxGeometry x="-0.148" y="-2" relative="1" as="geometry">
            <mxPoint x="5" y="-12" as="offset" />
          </mxGeometry>
        </mxCell>
        <mxCell id="F6ky775ezU9HYG-6rDv_-13" style="edgeStyle=orthogonalEdgeStyle;rounded=0;orthogonalLoop=1;jettySize=auto;html=1;entryX=0.5;entryY=1;entryDx=0;entryDy=0;labelBackgroundColor=none;endArrow=block;endFill=0;endSize=8;strokeWidth=1;shadow=0;" edge="1" parent="WIyWlLk6GJQsqaUBKTNV-1" source="F6ky775ezU9HYG-6rDv_-1" target="F6ky775ezU9HYG-6rDv_-12">
          <mxGeometry relative="1" as="geometry">
            <Array as="points">
              <mxPoint x="220" y="440" />
              <mxPoint x="470" y="440" />
            </Array>
          </mxGeometry>
        </mxCell>
        <mxCell id="F6ky775ezU9HYG-6rDv_-1" value="Sende Benachrichtigung an Gerät" style="rounded=1;whiteSpace=wrap;html=1;" vertex="1" parent="WIyWlLk6GJQsqaUBKTNV-1">
          <mxGeometry x="160" y="350" width="120" height="60" as="geometry" />
        </mxCell>
        <mxCell id="F6ky775ezU9HYG-6rDv_-5" value="Auswahl: Später" style="text;html=1;align=center;verticalAlign=middle;resizable=0;points=[];autosize=1;strokeColor=none;fillColor=none;fontSize=9;" vertex="1" parent="WIyWlLk6GJQsqaUBKTNV-1">
          <mxGeometry x="70" y="360" width="90" height="20" as="geometry" />
        </mxCell>
        <mxCell id="F6ky775ezU9HYG-6rDv_-19" style="edgeStyle=orthogonalEdgeStyle;rounded=0;orthogonalLoop=1;jettySize=auto;html=1;entryX=1;entryY=0;entryDx=0;entryDy=0;" edge="1" parent="WIyWlLk6GJQsqaUBKTNV-1" source="F6ky775ezU9HYG-6rDv_-12" target="F6ky775ezU9HYG-6rDv_-18">
          <mxGeometry relative="1" as="geometry">
            <mxPoint x="580" y="250" as="targetPoint" />
            <Array as="points">
              <mxPoint x="630" y="380" />
              <mxPoint x="630" y="29" />
            </Array>
          </mxGeometry>
        </mxCell>
        <mxCell id="F6ky775ezU9HYG-6rDv_-12" value="Fertig für heute" style="rounded=1;whiteSpace=wrap;html=1;fontSize=12;glass=0;strokeWidth=1;shadow=0;" vertex="1" parent="WIyWlLk6GJQsqaUBKTNV-1">
          <mxGeometry x="410" y="360" width="120" height="40" as="geometry" />
        </mxCell>
        <mxCell id="F6ky775ezU9HYG-6rDv_-15" value="Auswahl: Überspringen" style="edgeLabel;html=1;align=center;verticalAlign=middle;resizable=0;points=[];fontSize=9;" vertex="1" connectable="0" parent="WIyWlLk6GJQsqaUBKTNV-1">
          <mxGeometry x="339.9980952380954" y="430" as="geometry" />
        </mxCell>
        <mxCell id="F6ky775ezU9HYG-6rDv_-20" style="edgeStyle=orthogonalEdgeStyle;rounded=0;orthogonalLoop=1;jettySize=auto;html=1;" edge="1" parent="WIyWlLk6GJQsqaUBKTNV-1" source="F6ky775ezU9HYG-6rDv_-18" target="WIyWlLk6GJQsqaUBKTNV-3">
          <mxGeometry relative="1" as="geometry" />
        </mxCell>
        <mxCell id="F6ky775ezU9HYG-6rDv_-18" value="Start" style="ellipse;whiteSpace=wrap;html=1;aspect=fixed;" vertex="1" parent="WIyWlLk6GJQsqaUBKTNV-1">
          <mxGeometry x="190" y="20" width="60" height="60" as="geometry" />
        </mxCell>
      </root>
    </mxGraphModel>
  </diagram>
</mxfile>
